 
http://desibbrg.org/images/19633974814634281511.png 
http://desibbrg.org/images/31240396721671887495.png 
http://desibbrg.org/images/40423116618641346408.png 
http://desibbrg.org/images/18989189804862465825.png 
http://desibbrg.org/images/45620189334189637266.png


General
Complete name                  : Meech Tumchi Aishwarya - Marathi Natak x264 MP3 [TMB].avi
Format                         : AVI
Format/Info                    : Audio Video Interleave
File size                      : 225 MiB
Duration                       : 1h 1mn
Overall bit rate               : 514 Kbps
Writing application            : Lavf54.63.104

Video
ID                             : 0
Format                         : AVC
Format/Info                    : Advanced Video Codec
Format profile                 : High@L2.1
Format settings, CABAC         : Yes
Format settings, ReFrames      : 1 frame
Codec ID                       : H264
Duration                       : 1h 1mn
Bit rate                       : 246 Kbps
Width                          : 480 pixels
Height                         : 360 pixels
Display aspect ratio           : 4:3
Frame rate mode                : Variable
Frame rate                     : 25.000 fps
Color space                    : YUV
Chroma subsampling             : 4:2:0
Bit depth                      : 8 bits
Scan type                      : Progressive
Bits/(Pixel*Frame)             : 0.057
Stream size                    : 107 MiB (48%)
Writing library                : x264 core 129

Audio
ID                             : 1
Format                         : MPEG Audio
Format version                 : Version 1
Format profile                 : Layer 3
Mode                           : Joint stereo
Mode extension                 : MS Stereo
Codec ID                       : 55
Codec ID/Hint                  : MP3
Duration                       : 1h 1mn
Bit rate mode                  : Constant
Bit rate                       : 256 Kbps
Channel(s)                     : 2 channels
Sampling rate                  : 44.1 KHz
Compression mode               : Lossy
Stream size                    : 112 MiB (50%)
Alignment                      : Aligned on interleaves
Interleave, duration           : 26 ms (0.65 video frame)
Writing library                : LAME3.99.5

Ripper : Manojvb

Seeding 24x7... Extreme Seeding...

